<svg xmlns="http://www.w3.org/2000/svg" xmlns:xlink="http://www.w3.org/1999/xlink" width="300" zoomAndPan="magnify" viewBox="0 0 224.87999 219" height="292" preserveAspectRatio="xMidYMid meet" version="1.0"><defs><clipPath id="39ba105607"><path d="M 0 0.0585938 L 224.761719 0.0585938 L 224.761719 12 L 0 12 Z M 0 0.0585938 " clip-rule="nonzero"/></clipPath><clipPath id="e8941d4e84"><path d="M 0 12 L 224.761719 12 L 224.761719 24 L 0 24 Z M 0 12 " clip-rule="nonzero"/></clipPath><clipPath id="66462ff1c8"><path d="M 0 24 L 224.761719 24 L 224.761719 36 L 0 36 Z M 0 24 " clip-rule="nonzero"/></clipPath><clipPath id="c53aa2e704"><path d="M 0 36 L 224.761719 36 L 224.761719 48 L 0 48 Z M 0 36 " clip-rule="nonzero"/></clipPath><clipPath id="e937ba3368"><path d="M 0 48 L 224.761719 48 L 224.761719 61 L 0 61 Z M 0 48 " clip-rule="nonzero"/></clipPath><clipPath id="ef2fba4b55"><path d="M 0 61 L 224.761719 61 L 224.761719 73 L 0 73 Z M 0 61 " clip-rule="nonzero"/></clipPath><clipPath id="51b969d092"><path d="M 0 73 L 224.761719 73 L 224.761719 85 L 0 85 Z M 0 73 " clip-rule="nonzero"/></clipPath><clipPath id="30bc1ca546"><path d="M 0 85 L 224.761719 85 L 224.761719 97 L 0 97 Z M 0 85 " clip-rule="nonzero"/></clipPath><clipPath id="701709d4ff"><path d="M 0 97 L 224.761719 97 L 224.761719 109 L 0 109 Z M 0 97 " clip-rule="nonzero"/></clipPath><clipPath id="7297cddcfd"><path d="M 0 110 L 224.761719 110 L 224.761719 122 L 0 122 Z M 0 110 " clip-rule="nonzero"/></clipPath><clipPath id="f7f2e30846"><path d="M 0 122 L 224.761719 122 L 224.761719 134 L 0 134 Z M 0 122 " clip-rule="nonzero"/></clipPath><clipPath id="2690b761d7"><path d="M 0 134 L 224.761719 134 L 224.761719 146 L 0 146 Z M 0 134 " clip-rule="nonzero"/></clipPath><clipPath id="fcafda0d34"><path d="M 0 146 L 224.761719 146 L 224.761719 158 L 0 158 Z M 0 146 " clip-rule="nonzero"/></clipPath><clipPath id="7104e0152d"><path d="M 0 158 L 224.761719 158 L 224.761719 171 L 0 171 Z M 0 158 " clip-rule="nonzero"/></clipPath><clipPath id="96e6026572"><path d="M 0 171 L 224.761719 171 L 224.761719 183 L 0 183 Z M 0 171 " clip-rule="nonzero"/></clipPath><clipPath id="44e5b8e9a2"><path d="M 0 183 L 224.761719 183 L 224.761719 195 L 0 195 Z M 0 183 " clip-rule="nonzero"/></clipPath><clipPath id="eaaec2fdfb"><path d="M 0 195 L 224.761719 195 L 224.761719 207 L 0 207 Z M 0 195 " clip-rule="nonzero"/></clipPath><clipPath id="9b0dc17516"><path d="M 0 207 L 224.761719 207 L 224.761719 218.941406 L 0 218.941406 Z M 0 207 " clip-rule="nonzero"/></clipPath></defs><g clip-path="url(#39ba105607)"><path fill="#fff3da" d="M 202.097656 11.160156 L 179.683594 1.757812 L 157.269531 11.160156 L 134.855469 1.757812 L 112.441406 11.160156 L 90.03125 1.757812 L 67.617188 11.160156 L 45.203125 1.757812 L 22.792969 11.160156 L 0.0742188 1.632812 L 0.683594 0.1875 L 22.792969 9.460938 L 45.203125 0.0585938 L 67.617188 9.460938 L 90.03125 0.0585938 L 112.441406 9.460938 L 134.855469 0.0585938 L 157.269531 9.460938 L 179.683594 0.0585938 L 202.097656 9.460938 L 224.207031 0.1875 L 224.816406 1.632812 Z M 202.097656 11.160156 " fill-opacity="1" fill-rule="nonzero"/></g><g clip-path="url(#e8941d4e84)"><path fill="#fff3da" d="M 202.097656 23.382812 L 179.683594 13.980469 L 157.269531 23.382812 L 134.855469 13.980469 L 112.441406 23.382812 L 90.03125 13.980469 L 67.617188 23.382812 L 45.203125 13.980469 L 22.792969 23.382812 L 0.0742188 13.855469 L 0.683594 12.410156 L 22.792969 21.683594 L 45.203125 12.28125 L 67.617188 21.683594 L 90.03125 12.28125 L 112.441406 21.683594 L 134.855469 12.28125 L 157.269531 21.683594 L 179.683594 12.28125 L 202.097656 21.683594 L 224.207031 12.410156 L 224.816406 13.855469 Z M 202.097656 23.382812 " fill-opacity="1" fill-rule="nonzero"/></g><g clip-path="url(#66462ff1c8)"><path fill="#fff3da" d="M 202.097656 35.605469 L 179.683594 26.203125 L 157.269531 35.605469 L 134.855469 26.203125 L 112.441406 35.605469 L 90.03125 26.203125 L 67.617188 35.605469 L 45.203125 26.203125 L 22.792969 35.605469 L 0.0742188 26.078125 L 0.683594 24.632812 L 22.792969 33.90625 L 45.203125 24.503906 L 67.617188 33.90625 L 90.03125 24.503906 L 112.441406 33.90625 L 134.855469 24.503906 L 157.269531 33.90625 L 179.683594 24.503906 L 202.097656 33.90625 L 224.207031 24.632812 L 224.816406 26.078125 Z M 202.097656 35.605469 " fill-opacity="1" fill-rule="nonzero"/></g><g clip-path="url(#c53aa2e704)"><path fill="#fff3da" d="M 202.097656 47.828125 L 179.683594 38.425781 L 157.269531 47.828125 L 134.855469 38.425781 L 112.441406 47.828125 L 90.03125 38.425781 L 67.617188 47.828125 L 45.203125 38.425781 L 22.792969 47.828125 L 0.0742188 38.300781 L 0.683594 36.855469 L 22.792969 46.128906 L 45.203125 36.726562 L 67.617188 46.128906 L 90.03125 36.726562 L 112.441406 46.128906 L 134.855469 36.726562 L 157.269531 46.128906 L 179.683594 36.726562 L 202.097656 46.128906 L 224.207031 36.855469 L 224.816406 38.300781 Z M 202.097656 47.828125 " fill-opacity="1" fill-rule="nonzero"/></g><g clip-path="url(#e937ba3368)"><path fill="#fff3da" d="M 202.097656 60.050781 L 179.683594 50.648438 L 157.269531 60.050781 L 134.855469 50.648438 L 112.441406 60.050781 L 90.03125 50.648438 L 67.617188 60.050781 L 45.203125 50.648438 L 22.792969 60.050781 L 0.0742188 50.523438 L 0.683594 49.078125 L 22.792969 58.351562 L 45.203125 48.949219 L 67.617188 58.351562 L 90.03125 48.949219 L 112.441406 58.351562 L 134.855469 48.949219 L 157.269531 58.351562 L 179.683594 48.949219 L 202.097656 58.351562 L 224.207031 49.078125 L 224.816406 50.523438 Z M 202.097656 60.050781 " fill-opacity="1" fill-rule="nonzero"/></g><g clip-path="url(#ef2fba4b55)"><path fill="#fff3da" d="M 202.097656 72.273438 L 179.683594 62.871094 L 157.269531 72.273438 L 134.855469 62.871094 L 112.441406 72.273438 L 90.03125 62.871094 L 67.617188 72.273438 L 45.203125 62.871094 L 22.792969 72.273438 L 0.0742188 62.746094 L 0.683594 61.300781 L 22.792969 70.574219 L 45.203125 61.171875 L 67.617188 70.574219 L 90.03125 61.171875 L 112.441406 70.574219 L 134.855469 61.171875 L 157.269531 70.574219 L 179.683594 61.171875 L 202.097656 70.574219 L 224.207031 61.300781 L 224.816406 62.746094 Z M 202.097656 72.273438 " fill-opacity="1" fill-rule="nonzero"/></g><g clip-path="url(#51b969d092)"><path fill="#fff3da" d="M 202.097656 84.496094 L 179.683594 75.09375 L 157.269531 84.496094 L 134.855469 75.09375 L 112.441406 84.496094 L 90.03125 75.09375 L 67.617188 84.496094 L 45.203125 75.09375 L 22.792969 84.496094 L 0.0742188 74.96875 L 0.683594 73.523438 L 22.792969 82.796875 L 45.203125 73.394531 L 67.617188 82.796875 L 90.03125 73.394531 L 112.441406 82.796875 L 134.855469 73.394531 L 157.269531 82.796875 L 179.683594 73.394531 L 202.097656 82.796875 L 224.207031 73.523438 L 224.816406 74.96875 Z M 202.097656 84.496094 " fill-opacity="1" fill-rule="nonzero"/></g><g clip-path="url(#30bc1ca546)"><path fill="#fff3da" d="M 202.097656 96.71875 L 179.683594 87.316406 L 157.269531 96.71875 L 134.855469 87.316406 L 112.441406 96.71875 L 90.03125 87.316406 L 67.617188 96.71875 L 45.203125 87.316406 L 22.792969 96.71875 L 0.0742188 87.191406 L 0.683594 85.746094 L 22.792969 95.019531 L 45.203125 85.617188 L 67.617188 95.019531 L 90.03125 85.617188 L 112.441406 95.019531 L 134.855469 85.617188 L 157.269531 95.019531 L 179.683594 85.617188 L 202.097656 95.019531 L 224.207031 85.746094 L 224.816406 87.191406 Z M 202.097656 96.71875 " fill-opacity="1" fill-rule="nonzero"/></g><g clip-path="url(#701709d4ff)"><path fill="#fff3da" d="M 202.097656 108.941406 L 179.683594 99.539062 L 157.269531 108.941406 L 134.855469 99.539062 L 112.441406 108.941406 L 90.03125 99.539062 L 67.617188 108.941406 L 45.203125 99.539062 L 22.792969 108.941406 L 0.0742188 99.414062 L 0.683594 97.96875 L 22.792969 107.242188 L 45.203125 97.839844 L 67.617188 107.242188 L 90.03125 97.839844 L 112.441406 107.242188 L 134.855469 97.839844 L 157.269531 107.242188 L 179.683594 97.839844 L 202.097656 107.242188 L 224.207031 97.96875 L 224.816406 99.414062 Z M 202.097656 108.941406 " fill-opacity="1" fill-rule="nonzero"/></g><g clip-path="url(#7297cddcfd)"><path fill="#fff3da" d="M 202.097656 121.164062 L 179.683594 111.761719 L 157.269531 121.164062 L 134.855469 111.761719 L 112.441406 121.164062 L 90.03125 111.761719 L 67.617188 121.164062 L 45.203125 111.761719 L 22.792969 121.164062 L 0.0742188 111.636719 L 0.683594 110.191406 L 22.792969 119.464844 L 45.203125 110.0625 L 67.617188 119.464844 L 90.03125 110.0625 L 112.441406 119.464844 L 134.855469 110.0625 L 157.269531 119.464844 L 179.683594 110.0625 L 202.097656 119.464844 L 224.207031 110.191406 L 224.816406 111.636719 Z M 202.097656 121.164062 " fill-opacity="1" fill-rule="nonzero"/></g><g clip-path="url(#f7f2e30846)"><path fill="#fff3da" d="M 202.097656 133.386719 L 179.683594 123.984375 L 157.269531 133.386719 L 134.855469 123.984375 L 112.441406 133.386719 L 90.03125 123.984375 L 67.617188 133.386719 L 45.203125 123.984375 L 22.792969 133.386719 L 0.0742188 123.859375 L 0.683594 122.414062 L 22.792969 131.6875 L 45.203125 122.285156 L 67.617188 131.6875 L 90.03125 122.285156 L 112.441406 131.6875 L 134.855469 122.285156 L 157.269531 131.6875 L 179.683594 122.285156 L 202.097656 131.6875 L 224.207031 122.414062 L 224.816406 123.859375 Z M 202.097656 133.386719 " fill-opacity="1" fill-rule="nonzero"/></g><g clip-path="url(#2690b761d7)"><path fill="#fff3da" d="M 202.097656 145.609375 L 179.683594 136.207031 L 157.269531 145.609375 L 134.855469 136.207031 L 112.441406 145.609375 L 90.03125 136.207031 L 67.617188 145.609375 L 45.203125 136.207031 L 22.792969 145.609375 L 0.0742188 136.082031 L 0.683594 134.636719 L 22.792969 143.910156 L 45.203125 134.511719 L 67.617188 143.910156 L 90.03125 134.511719 L 112.441406 143.910156 L 134.855469 134.511719 L 157.269531 143.910156 L 179.683594 134.511719 L 202.097656 143.910156 L 224.207031 134.636719 L 224.816406 136.082031 Z M 202.097656 145.609375 " fill-opacity="1" fill-rule="nonzero"/></g><g clip-path="url(#fcafda0d34)"><path fill="#fff3da" d="M 202.097656 157.832031 L 179.683594 148.429688 L 157.269531 157.832031 L 134.855469 148.429688 L 112.441406 157.832031 L 90.03125 148.429688 L 67.617188 157.832031 L 45.203125 148.429688 L 22.792969 157.832031 L 0.0742188 148.304688 L 0.683594 146.859375 L 22.792969 156.136719 L 45.203125 146.734375 L 67.617188 156.136719 L 90.03125 146.734375 L 112.441406 156.136719 L 134.855469 146.734375 L 157.269531 156.136719 L 179.683594 146.734375 L 202.097656 156.136719 L 224.207031 146.859375 L 224.816406 148.304688 Z M 202.097656 157.832031 " fill-opacity="1" fill-rule="nonzero"/></g><g clip-path="url(#7104e0152d)"><path fill="#fff3da" d="M 202.097656 170.054688 L 179.683594 160.652344 L 157.269531 170.054688 L 134.855469 160.652344 L 112.441406 170.054688 L 90.03125 160.652344 L 67.617188 170.054688 L 45.203125 160.652344 L 22.792969 170.054688 L 0.0742188 160.527344 L 0.683594 159.085938 L 22.792969 168.359375 L 45.203125 158.957031 L 67.617188 168.359375 L 90.03125 158.957031 L 112.441406 168.359375 L 134.855469 158.957031 L 157.269531 168.359375 L 179.683594 158.957031 L 202.097656 168.359375 L 224.207031 159.085938 L 224.816406 160.527344 Z M 202.097656 170.054688 " fill-opacity="1" fill-rule="nonzero"/></g><g clip-path="url(#96e6026572)"><path fill="#fff3da" d="M 202.097656 182.277344 L 179.683594 172.878906 L 157.269531 182.277344 L 134.855469 172.878906 L 112.441406 182.277344 L 90.03125 172.878906 L 67.617188 182.277344 L 45.203125 172.878906 L 22.792969 182.277344 L 0.0742188 172.75 L 0.683594 171.308594 L 22.792969 180.582031 L 45.203125 171.179688 L 67.617188 180.582031 L 90.03125 171.179688 L 112.441406 180.582031 L 134.855469 171.179688 L 157.269531 180.582031 L 179.683594 171.179688 L 202.097656 180.582031 L 224.207031 171.308594 L 224.816406 172.75 Z M 202.097656 182.277344 " fill-opacity="1" fill-rule="nonzero"/></g><g clip-path="url(#44e5b8e9a2)"><path fill="#fff3da" d="M 202.097656 194.503906 L 179.683594 185.101562 L 157.269531 194.503906 L 134.855469 185.101562 L 112.441406 194.503906 L 90.03125 185.101562 L 67.617188 194.503906 L 45.203125 185.101562 L 22.792969 194.503906 L 0.0742188 184.972656 L 0.683594 183.53125 L 22.792969 192.804688 L 45.203125 183.402344 L 67.617188 192.804688 L 90.03125 183.402344 L 112.441406 192.804688 L 134.855469 183.402344 L 157.269531 192.804688 L 179.683594 183.402344 L 202.097656 192.804688 L 224.207031 183.53125 L 224.816406 184.972656 Z M 202.097656 194.503906 " fill-opacity="1" fill-rule="nonzero"/></g><g clip-path="url(#eaaec2fdfb)"><path fill="#fff3da" d="M 202.097656 206.726562 L 179.683594 197.324219 L 157.269531 206.726562 L 134.855469 197.324219 L 112.441406 206.726562 L 90.03125 197.324219 L 67.617188 206.726562 L 45.203125 197.324219 L 22.792969 206.726562 L 0.0742188 197.199219 L 0.683594 195.753906 L 22.792969 205.027344 L 45.203125 195.625 L 67.617188 205.027344 L 90.03125 195.625 L 112.441406 205.027344 L 134.855469 195.625 L 157.269531 205.027344 L 179.683594 195.625 L 202.097656 205.027344 L 224.207031 195.753906 L 224.816406 197.199219 Z M 202.097656 206.726562 " fill-opacity="1" fill-rule="nonzero"/></g><g clip-path="url(#9b0dc17516)"><path fill="#fff3da" d="M 202.097656 218.949219 L 179.683594 209.546875 L 157.269531 218.949219 L 134.855469 209.546875 L 112.441406 218.949219 L 90.03125 209.546875 L 67.617188 218.949219 L 45.203125 209.546875 L 22.792969 218.949219 L 0.0742188 209.421875 L 0.683594 207.976562 L 22.792969 217.25 L 45.203125 207.847656 L 67.617188 217.25 L 90.03125 207.847656 L 112.441406 217.25 L 134.855469 207.847656 L 157.269531 217.25 L 179.683594 207.847656 L 202.097656 217.25 L 224.207031 207.976562 L 224.816406 209.421875 Z M 202.097656 218.949219 " fill-opacity="1" fill-rule="nonzero"/></g></svg>