<svg xmlns="http://www.w3.org/2000/svg" xmlns:xlink="http://www.w3.org/1999/xlink" width="1200" zoomAndPan="magnify" viewBox="0 0 900 635.999998" height="848" preserveAspectRatio="xMidYMid meet" version="1.0"><defs><clipPath id="21568c91c6"><path d="M 8 497.625 L 17 497.625 L 17 506 L 8 506 Z M 8 497.625 " clip-rule="nonzero"/></clipPath></defs><path fill="#f8af6c" d="M 538.59375 545.058594 C 538.890625 545.242188 539.167969 545.453125 539.421875 545.695312 C 539.679688 545.933594 539.910156 546.195312 540.113281 546.480469 C 540.320312 546.765625 540.496094 547.066406 540.640625 547.386719 C 540.785156 547.707031 540.898438 548.035156 540.980469 548.378906 C 541.058594 548.71875 541.105469 549.066406 541.117188 549.417969 C 541.132812 549.769531 541.109375 550.117188 541.054688 550.464844 C 540.996094 550.808594 540.90625 551.148438 540.785156 551.476562 C 540.664062 551.804688 540.511719 552.121094 540.324219 552.417969 C 540.140625 552.714844 539.929688 552.996094 539.691406 553.25 C 539.453125 553.507812 539.191406 553.738281 538.90625 553.945312 C 538.625 554.148438 538.324219 554.324219 538.003906 554.472656 C 537.683594 554.617188 537.355469 554.730469 537.015625 554.8125 C 536.675781 554.890625 536.328125 554.9375 535.980469 554.949219 C 535.628906 554.964844 535.28125 554.941406 534.9375 554.886719 C 534.589844 554.828125 534.253906 554.738281 533.925781 554.617188 C 533.597656 554.492188 533.285156 554.339844 532.988281 554.15625 C 532.6875 553.972656 532.410156 553.757812 532.15625 553.519531 C 531.898438 553.28125 531.667969 553.019531 531.464844 552.734375 C 531.257812 552.449219 531.082031 552.148438 530.9375 551.828125 C 530.792969 551.507812 530.679688 551.175781 530.601562 550.835938 C 530.519531 550.496094 530.472656 550.148438 530.460938 549.796875 C 530.449219 549.445312 530.46875 549.097656 530.527344 548.75 C 530.582031 548.40625 530.671875 548.066406 530.792969 547.738281 C 530.914062 547.410156 531.070312 547.09375 531.253906 546.796875 C 531.4375 546.496094 531.648438 546.21875 531.886719 545.964844 C 532.125 545.707031 532.386719 545.476562 532.671875 545.269531 C 532.957031 545.0625 533.257812 544.890625 533.574219 544.742188 C 533.894531 544.597656 534.222656 544.484375 534.5625 544.402344 C 534.90625 544.324219 535.25 544.277344 535.601562 544.261719 C 535.949219 544.25 536.296875 544.273438 536.644531 544.328125 C 536.988281 544.386719 537.324219 544.476562 537.652344 544.597656 C 537.980469 544.71875 538.292969 544.875 538.59375 545.058594 Z M 538.59375 545.058594 " fill-opacity="1" fill-rule="nonzero"/><path fill="#f8af6c" d="M 111.070312 516.238281 C 111.070312 516.589844 111.035156 516.9375 110.96875 517.28125 C 110.902344 517.625 110.800781 517.960938 110.664062 518.285156 C 110.53125 518.609375 110.367188 518.917969 110.171875 519.207031 C 109.976562 519.5 109.757812 519.769531 109.507812 520.019531 C 109.261719 520.265625 108.992188 520.488281 108.703125 520.683594 C 108.410156 520.878906 108.101562 521.042969 107.78125 521.175781 C 107.457031 521.3125 107.121094 521.414062 106.777344 521.480469 C 106.4375 521.550781 106.089844 521.585938 105.738281 521.585938 C 105.386719 521.585938 105.042969 521.550781 104.699219 521.480469 C 104.355469 521.414062 104.023438 521.3125 103.699219 521.179688 C 103.375 521.042969 103.066406 520.878906 102.777344 520.683594 C 102.484375 520.488281 102.214844 520.265625 101.96875 520.019531 C 101.71875 519.769531 101.5 519.5 101.304688 519.207031 C 101.109375 518.917969 100.945312 518.609375 100.8125 518.285156 C 100.679688 517.960938 100.578125 517.625 100.507812 517.28125 C 100.441406 516.9375 100.40625 516.589844 100.40625 516.238281 C 100.40625 515.886719 100.441406 515.539062 100.507812 515.195312 C 100.578125 514.851562 100.679688 514.515625 100.8125 514.191406 C 100.945312 513.867188 101.109375 513.558594 101.304688 513.265625 C 101.5 512.976562 101.71875 512.707031 101.96875 512.457031 C 102.214844 512.207031 102.484375 511.988281 102.777344 511.792969 C 103.066406 511.597656 103.375 511.433594 103.699219 511.296875 C 104.023438 511.164062 104.355469 511.0625 104.699219 510.992188 C 105.042969 510.925781 105.386719 510.890625 105.738281 510.890625 C 106.089844 510.890625 106.4375 510.925781 106.777344 510.992188 C 107.121094 511.0625 107.457031 511.164062 107.78125 511.296875 C 108.101562 511.433594 108.410156 511.597656 108.703125 511.792969 C 108.992188 511.988281 109.261719 512.207031 109.507812 512.457031 C 109.757812 512.707031 109.976562 512.976562 110.171875 513.265625 C 110.367188 513.558594 110.53125 513.867188 110.664062 514.191406 C 110.800781 514.515625 110.902344 514.851562 110.96875 515.195312 C 111.035156 515.539062 111.070312 515.886719 111.070312 516.238281 Z M 111.070312 516.238281 " fill-opacity="1" fill-rule="nonzero"/><path fill="#f8af6c" d="M 259.347656 551.171875 C 259.347656 551.523438 259.3125 551.871094 259.242188 552.214844 C 259.175781 552.5625 259.074219 552.894531 258.941406 553.21875 C 258.804688 553.542969 258.640625 553.851562 258.449219 554.144531 C 258.253906 554.4375 258.03125 554.707031 257.785156 554.953125 C 257.535156 555.203125 257.265625 555.425781 256.976562 555.621094 C 256.683594 555.8125 256.378906 555.980469 256.054688 556.113281 C 255.730469 556.246094 255.398438 556.347656 255.054688 556.417969 C 254.710938 556.484375 254.363281 556.519531 254.015625 556.519531 C 253.664062 556.519531 253.316406 556.484375 252.972656 556.417969 C 252.628906 556.347656 252.296875 556.246094 251.972656 556.113281 C 251.648438 555.980469 251.34375 555.8125 251.050781 555.621094 C 250.761719 555.425781 250.492188 555.203125 250.242188 554.953125 C 249.996094 554.707031 249.773438 554.4375 249.578125 554.144531 C 249.386719 553.851562 249.222656 553.542969 249.085938 553.21875 C 248.953125 552.894531 248.851562 552.5625 248.785156 552.214844 C 248.714844 551.871094 248.679688 551.523438 248.679688 551.171875 C 248.679688 550.824219 248.714844 550.476562 248.785156 550.128906 C 248.851562 549.785156 248.953125 549.453125 249.085938 549.128906 C 249.222656 548.804688 249.386719 548.496094 249.578125 548.203125 C 249.773438 547.910156 249.996094 547.640625 250.242188 547.394531 C 250.492188 547.144531 250.761719 546.921875 251.050781 546.726562 C 251.34375 546.53125 251.648438 546.367188 251.972656 546.234375 C 252.296875 546.097656 252.628906 545.996094 252.972656 545.929688 C 253.316406 545.859375 253.664062 545.828125 254.015625 545.828125 C 254.363281 545.828125 254.710938 545.859375 255.054688 545.929688 C 255.398438 545.996094 255.730469 546.097656 256.054688 546.234375 C 256.378906 546.367188 256.683594 546.53125 256.976562 546.726562 C 257.265625 546.921875 257.535156 547.144531 257.785156 547.390625 C 258.03125 547.640625 258.253906 547.910156 258.449219 548.203125 C 258.640625 548.496094 258.804688 548.804688 258.941406 549.128906 C 259.074219 549.453125 259.175781 549.785156 259.242188 550.128906 C 259.3125 550.476562 259.347656 550.824219 259.347656 551.171875 Z M 259.347656 551.171875 " fill-opacity="1" fill-rule="nonzero"/><path fill="#f8af6c" d="M 704.304688 551.171875 C 704.304688 551.472656 704.277344 551.769531 704.21875 552.066406 C 704.160156 552.359375 704.074219 552.644531 703.960938 552.921875 C 703.84375 553.199219 703.703125 553.460938 703.539062 553.710938 C 703.371094 553.960938 703.183594 554.191406 702.972656 554.402344 C 702.761719 554.617188 702.53125 554.804688 702.28125 554.972656 C 702.03125 555.140625 701.769531 555.28125 701.492188 555.394531 C 701.21875 555.507812 700.933594 555.597656 700.640625 555.652344 C 700.34375 555.710938 700.050781 555.742188 699.75 555.742188 C 699.449219 555.742188 699.15625 555.710938 698.859375 555.652344 C 698.566406 555.597656 698.28125 555.507812 698.007812 555.394531 C 697.730469 555.28125 697.46875 555.140625 697.21875 554.972656 C 696.96875 554.804688 696.738281 554.617188 696.527344 554.402344 C 696.316406 554.191406 696.128906 553.960938 695.960938 553.710938 C 695.796875 553.460938 695.65625 553.199219 695.539062 552.921875 C 695.425781 552.644531 695.339844 552.359375 695.28125 552.066406 C 695.222656 551.769531 695.195312 551.472656 695.195312 551.171875 C 695.195312 550.875 695.222656 550.578125 695.28125 550.28125 C 695.339844 549.988281 695.425781 549.703125 695.539062 549.425781 C 695.65625 549.148438 695.796875 548.882812 695.960938 548.636719 C 696.128906 548.386719 696.316406 548.15625 696.527344 547.941406 C 696.738281 547.730469 696.96875 547.542969 697.21875 547.375 C 697.46875 547.207031 697.730469 547.066406 698.007812 546.953125 C 698.28125 546.835938 698.566406 546.75 698.859375 546.691406 C 699.15625 546.632812 699.449219 546.605469 699.75 546.605469 C 700.050781 546.605469 700.34375 546.632812 700.640625 546.691406 C 700.933594 546.75 701.21875 546.835938 701.492188 546.953125 C 701.769531 547.066406 702.03125 547.207031 702.28125 547.375 C 702.53125 547.542969 702.761719 547.730469 702.972656 547.941406 C 703.183594 548.15625 703.371094 548.386719 703.539062 548.636719 C 703.703125 548.882812 703.84375 549.148438 703.960938 549.425781 C 704.074219 549.703125 704.160156 549.988281 704.21875 550.28125 C 704.277344 550.578125 704.304688 550.875 704.304688 551.171875 Z M 704.304688 551.171875 " fill-opacity="1" fill-rule="nonzero"/><path fill="#f8af6c" d="M 814.917969 548.4375 C 815.402344 548.554688 815.851562 548.757812 816.253906 549.050781 C 816.660156 549.34375 816.996094 549.703125 817.257812 550.128906 C 817.519531 550.554688 817.691406 551.015625 817.773438 551.511719 C 817.851562 552.007812 817.835938 552.496094 817.71875 552.984375 C 817.605469 553.472656 817.402344 553.917969 817.109375 554.324219 C 816.816406 554.734375 816.457031 555.066406 816.03125 555.332031 C 815.609375 555.59375 815.148438 555.765625 814.65625 555.847656 C 814.160156 555.925781 813.671875 555.910156 813.1875 555.792969 C 812.699219 555.679688 812.253906 555.476562 811.847656 555.183594 C 811.441406 554.890625 811.109375 554.527344 810.84375 554.101562 C 810.582031 553.675781 810.410156 553.214844 810.332031 552.722656 C 810.25 552.226562 810.269531 551.734375 810.382812 551.246094 C 810.5 550.761719 810.703125 550.3125 810.996094 549.90625 C 811.285156 549.5 811.644531 549.164062 812.070312 548.902344 C 812.496094 548.636719 812.953125 548.464844 813.449219 548.386719 C 813.941406 548.304688 814.429688 548.324219 814.917969 548.4375 Z M 814.917969 548.4375 " fill-opacity="1" fill-rule="nonzero"/><g clip-path="url(#21568c91c6)"><path fill="#f8af6c" d="M 16.425781 501.402344 C 16.425781 501.90625 16.328125 502.386719 16.136719 502.851562 C 15.945312 503.3125 15.675781 503.722656 15.320312 504.074219 C 14.96875 504.429688 14.558594 504.703125 14.097656 504.894531 C 13.636719 505.085938 13.15625 505.183594 12.65625 505.183594 C 12.15625 505.183594 11.675781 505.085938 11.214844 504.894531 C 10.753906 504.703125 10.34375 504.429688 9.992188 504.074219 C 9.636719 503.722656 9.367188 503.3125 9.175781 502.851562 C 8.984375 502.386719 8.886719 501.90625 8.886719 501.402344 C 8.886719 500.902344 8.984375 500.421875 9.175781 499.957031 C 9.367188 499.496094 9.636719 499.085938 9.992188 498.730469 C 10.34375 498.378906 10.753906 498.105469 11.214844 497.914062 C 11.675781 497.722656 12.15625 497.625 12.65625 497.625 C 13.15625 497.625 13.636719 497.722656 14.097656 497.914062 C 14.558594 498.105469 14.96875 498.378906 15.320312 498.730469 C 15.675781 499.085938 15.945312 499.496094 16.136719 499.957031 C 16.328125 500.421875 16.425781 500.902344 16.425781 501.402344 Z M 16.425781 501.402344 " fill-opacity="1" fill-rule="nonzero"/></g><path fill="#f8af6c" d="M 416.863281 517.648438 C 417.324219 517.839844 417.730469 518.113281 418.085938 518.464844 C 418.4375 518.820312 418.710938 519.230469 418.902344 519.691406 C 419.09375 520.15625 419.1875 520.636719 419.1875 521.136719 C 419.1875 521.640625 419.09375 522.121094 418.902344 522.585938 C 418.710938 523.046875 418.4375 523.457031 418.085938 523.808594 C 417.730469 524.164062 417.324219 524.4375 416.863281 524.628906 C 416.398438 524.820312 415.917969 524.917969 415.417969 524.917969 C 414.917969 524.917969 414.4375 524.820312 413.976562 524.628906 C 413.515625 524.4375 413.109375 524.164062 412.753906 523.808594 C 412.402344 523.457031 412.128906 523.046875 411.9375 522.585938 C 411.746094 522.121094 411.652344 521.640625 411.652344 521.136719 C 411.652344 520.636719 411.746094 520.15625 411.9375 519.691406 C 412.128906 519.230469 412.402344 518.820312 412.753906 518.464844 C 413.109375 518.113281 413.515625 517.839844 413.976562 517.648438 C 414.4375 517.453125 414.917969 517.359375 415.417969 517.359375 C 415.917969 517.359375 416.398438 517.453125 416.863281 517.648438 Z M 416.863281 517.648438 " fill-opacity="1" fill-rule="nonzero"/><path fill="#f8af6c" d="M 321.132812 559.734375 C 321.132812 560.238281 321.035156 560.71875 320.84375 561.179688 C 320.652344 561.644531 320.378906 562.054688 320.027344 562.40625 C 319.675781 562.761719 319.265625 563.035156 318.804688 563.226562 C 318.34375 563.417969 317.863281 563.515625 317.363281 563.515625 C 316.863281 563.515625 316.382812 563.417969 315.921875 563.226562 C 315.457031 563.035156 315.050781 562.761719 314.699219 562.40625 C 314.34375 562.054688 314.070312 561.644531 313.878906 561.179688 C 313.6875 560.71875 313.59375 560.238281 313.59375 559.734375 C 313.59375 559.234375 313.6875 558.753906 313.878906 558.289062 C 314.070312 557.828125 314.34375 557.417969 314.699219 557.0625 C 315.050781 556.707031 315.457031 556.4375 315.921875 556.242188 C 316.382812 556.050781 316.863281 555.957031 317.363281 555.957031 C 317.863281 555.957031 318.34375 556.050781 318.804688 556.242188 C 319.265625 556.4375 319.675781 556.707031 320.027344 557.0625 C 320.378906 557.417969 320.652344 557.828125 320.84375 558.289062 C 321.035156 558.753906 321.132812 559.234375 321.132812 559.734375 Z M 321.132812 559.734375 " fill-opacity="1" fill-rule="nonzero"/><path fill="#f8af6c" d="M 847.859375 522.875 C 847.953125 523.109375 848 523.347656 848 523.601562 C 848 523.851562 847.953125 524.09375 847.859375 524.324219 C 847.761719 524.558594 847.625 524.761719 847.449219 524.941406 C 847.269531 525.117188 847.066406 525.253906 846.835938 525.351562 C 846.601562 525.449219 846.363281 525.496094 846.113281 525.496094 C 845.859375 525.496094 845.621094 525.449219 845.386719 525.351562 C 845.15625 525.253906 844.953125 525.117188 844.773438 524.941406 C 844.597656 524.761719 844.460938 524.558594 844.367188 524.324219 C 844.269531 524.09375 844.222656 523.851562 844.222656 523.601562 C 844.222656 523.347656 844.269531 523.109375 844.367188 522.875 C 844.460938 522.644531 844.597656 522.4375 844.773438 522.261719 C 844.953125 522.082031 845.15625 521.945312 845.386719 521.851562 C 845.621094 521.753906 845.859375 521.707031 846.113281 521.707031 C 846.363281 521.707031 846.601562 521.753906 846.835938 521.851562 C 847.066406 521.945312 847.269531 522.082031 847.449219 522.261719 C 847.625 522.4375 847.761719 522.644531 847.859375 522.875 Z M 847.859375 522.875 " fill-opacity="1" fill-rule="nonzero"/><path fill="#f8af6c" d="M 585.203125 528.90625 C 585.203125 529.15625 585.15625 529.398438 585.058594 529.632812 C 584.960938 529.863281 584.824219 530.066406 584.648438 530.246094 C 584.472656 530.421875 584.265625 530.558594 584.035156 530.65625 C 583.804688 530.753906 583.5625 530.800781 583.3125 530.800781 C 583.0625 530.800781 582.820312 530.753906 582.589844 530.65625 C 582.359375 530.558594 582.152344 530.421875 581.976562 530.246094 C 581.796875 530.066406 581.664062 529.863281 581.566406 529.632812 C 581.46875 529.398438 581.421875 529.15625 581.421875 528.90625 C 581.421875 528.65625 581.46875 528.414062 581.566406 528.179688 C 581.664062 527.949219 581.796875 527.742188 581.976562 527.566406 C 582.152344 527.386719 582.359375 527.25 582.589844 527.15625 C 582.820312 527.058594 583.0625 527.011719 583.3125 527.011719 C 583.5625 527.011719 583.804688 527.058594 584.035156 527.15625 C 584.265625 527.25 584.472656 527.386719 584.648438 527.566406 C 584.824219 527.742188 584.960938 527.949219 585.058594 528.179688 C 585.15625 528.414062 585.203125 528.65625 585.203125 528.90625 Z M 585.203125 528.90625 " fill-opacity="1" fill-rule="nonzero"/><path fill="#f8af6c" d="M 46.671875 527.050781 C 46.917969 527.101562 47.140625 527.199219 47.347656 527.34375 C 47.554688 527.484375 47.726562 527.664062 47.863281 527.875 C 47.996094 528.085938 48.089844 528.3125 48.132812 528.5625 C 48.179688 528.808594 48.175781 529.054688 48.121094 529.300781 C 48.070312 529.546875 47.972656 529.773438 47.832031 529.980469 C 47.6875 530.1875 47.511719 530.359375 47.300781 530.496094 C 47.089844 530.628906 46.863281 530.722656 46.617188 530.765625 C 46.367188 530.8125 46.125 530.808594 45.878906 530.753906 C 45.632812 530.703125 45.40625 530.605469 45.199219 530.460938 C 44.996094 530.320312 44.824219 530.144531 44.6875 529.933594 C 44.550781 529.722656 44.460938 529.492188 44.414062 529.246094 C 44.371094 528.996094 44.375 528.75 44.425781 528.503906 C 44.480469 528.257812 44.578125 528.03125 44.71875 527.828125 C 44.863281 527.621094 45.039062 527.449219 45.25 527.3125 C 45.460938 527.175781 45.6875 527.085938 45.933594 527.039062 C 46.179688 526.992188 46.425781 526.996094 46.671875 527.050781 Z M 46.671875 527.050781 " fill-opacity="1" fill-rule="nonzero"/><path fill="#f8af6c" d="M 204.558594 533.472656 C 204.558594 533.726562 204.511719 533.96875 204.414062 534.199219 C 204.320312 534.433594 204.183594 534.636719 204.003906 534.8125 C 203.828125 534.992188 203.625 535.128906 203.390625 535.226562 C 203.160156 535.320312 202.917969 535.371094 202.667969 535.371094 C 202.417969 535.371094 202.175781 535.320312 201.945312 535.226562 C 201.714844 535.128906 201.507812 534.992188 201.332031 534.8125 C 201.15625 534.636719 201.019531 534.433594 200.921875 534.199219 C 200.828125 533.96875 200.777344 533.726562 200.777344 533.472656 C 200.777344 533.222656 200.828125 532.980469 200.921875 532.75 C 201.019531 532.515625 201.15625 532.3125 201.332031 532.132812 C 201.507812 531.957031 201.714844 531.820312 201.945312 531.722656 C 202.175781 531.628906 202.417969 531.578125 202.667969 531.578125 C 202.917969 531.578125 203.160156 531.628906 203.390625 531.722656 C 203.625 531.820312 203.828125 531.957031 204.003906 532.132812 C 204.183594 532.3125 204.320312 532.515625 204.414062 532.75 C 204.511719 532.980469 204.558594 533.222656 204.558594 533.472656 Z M 204.558594 533.472656 " fill-opacity="1" fill-rule="nonzero"/><path fill="#f8af6c" d="M 374.320312 541.019531 C 374.320312 541.273438 374.273438 541.515625 374.175781 541.746094 C 374.082031 541.976562 373.945312 542.183594 373.769531 542.359375 C 373.589844 542.539062 373.386719 542.675781 373.15625 542.773438 C 372.921875 542.867188 372.683594 542.917969 372.429688 542.917969 C 372.179688 542.917969 371.941406 542.867188 371.707031 542.773438 C 371.476562 542.675781 371.273438 542.539062 371.09375 542.359375 C 370.917969 542.183594 370.78125 541.976562 370.683594 541.746094 C 370.589844 541.515625 370.542969 541.273438 370.542969 541.019531 C 370.542969 540.769531 370.589844 540.527344 370.683594 540.296875 C 370.78125 540.0625 370.917969 539.859375 371.09375 539.679688 C 371.273438 539.503906 371.476562 539.367188 371.707031 539.269531 C 371.941406 539.175781 372.179688 539.125 372.429688 539.125 C 372.683594 539.125 372.921875 539.175781 373.15625 539.269531 C 373.386719 539.367188 373.589844 539.503906 373.769531 539.679688 C 373.945312 539.859375 374.082031 540.0625 374.175781 540.296875 C 374.273438 540.527344 374.320312 540.769531 374.320312 541.019531 Z M 374.320312 541.019531 " fill-opacity="1" fill-rule="nonzero"/><path fill="#f8af6c" d="M 900 636.375 L 900 522.171875 C 898.132812 522.035156 896.253906 521.957031 894.351562 521.957031 C 861.152344 521.957031 833.027344 543.71875 823.375 573.789062 C 818.042969 569.121094 811.078125 566.300781 803.441406 566.300781 C 791.234375 566.300781 780.714844 573.53125 775.914062 583.953125 C 763.335938 575.855469 748.359375 571.152344 732.296875 571.152344 C 718.582031 571.152344 705.667969 574.582031 694.351562 580.625 C 681.421875 557.027344 656.390625 541.03125 627.648438 541.03125 C 598.917969 541.03125 573.90625 557.015625 560.96875 580.59375 C 555.613281 572.007812 546.097656 566.3125 535.265625 566.3125 C 531.203125 566.3125 527.332031 567.113281 523.800781 568.566406 C 522.808594 540.625 499.90625 518.28125 471.800781 518.28125 C 449.671875 518.28125 430.773438 532.132812 423.257812 551.648438 C 419.207031 550.632812 414.980469 550.089844 410.613281 550.089844 C 395.234375 550.089844 381.421875 556.78125 371.890625 567.417969 C 366.535156 562.644531 359.484375 559.746094 351.765625 559.746094 C 339.03125 559.746094 328.140625 567.609375 323.652344 578.765625 C 312.535156 572.390625 299.667969 568.75 285.953125 568.75 C 273.140625 568.75 261.066406 571.929688 250.46875 577.535156 C 241.683594 561.191406 224.460938 550.089844 204.636719 550.089844 C 200.285156 550.089844 196.042969 550.632812 191.992188 551.648438 C 184.464844 532.121094 165.566406 518.28125 143.449219 518.28125 C 115.347656 518.28125 92.441406 540.625 91.453125 568.566406 C 87.90625 567.113281 84.039062 566.3125 79.988281 566.3125 C 74.238281 566.3125 68.859375 567.914062 64.269531 570.710938 C 54.347656 543.921875 29.578125 524.394531 0 522.171875 L 0 636.375 Z M 900 636.375 " fill-opacity="1" fill-rule="nonzero"/></svg>